<?xml version="1.0" encoding="UTF-8"?>
<svg width="268px" height="558px" viewBox="0 0 268 558" version="1.1" xmlns="http://www.w3.org/2000/svg" xmlns:xlink="http://www.w3.org/1999/xlink">
    <title>Artboard</title>
    <g id="Artboard" stroke="none" stroke-width="1" fill="none" fill-rule="evenodd">
        <path d="M133.99,53.367 C89.779,53.367 53.943,89.207 53.943,133.414 C53.943,177.633 89.779,213.461 133.99,213.461 C178.209,213.461 214.041,177.625 214.041,133.414 C214.041,89.207 178.201,53.367 133.99,53.367 Z M134.001719,149.429 C125.154019,149.429 117.989719,142.261 117.989719,133.417 C117.989719,124.573 125.153819,117.405 134.001719,117.405 C142.837619,117.405 150.013719,124.573 150.013719,133.417 C150.013719,142.2568 142.837919,149.429 134.001719,149.429 Z" id="Shape" fill="#000000" fill-rule="nonzero"></path>
        <path d="M134,0 C60.316,0 0.58,59.734 0.58,133.41 C0.58,211.75 123.14,500.64 133.99,557.67 C144.732,501.041 267.42,193.9 267.42,133.41 C267.42,59.73 207.674,0 134.01,0 L134,0 Z M134,240.15 C75.047,240.15 27.27,192.361 27.27,133.41 C27.27,74.469 75.055,26.68 134,26.68 C192.941,26.68 240.73,74.469 240.73,133.41 C240.726093,192.359 192.941,240.15 134,240.15 L134,240.15 Z" id="Shape" fill="#000000" fill-rule="nonzero"></path>
    </g>
</svg>