<?xml version="1.0" encoding="utf-8"?>
<!-- Generator: Adobe Illustrator 18.1.1, SVG Export Plug-In . SVG Version: 6.00 Build 0)  -->
<!DOCTYPE svg PUBLIC "-//W3C//DTD SVG 1.1//EN" "http://www.w3.org/Graphics/SVG/1.1/DTD/svg11.dtd">
<svg version="1.1" id="Layer_1" xmlns="http://www.w3.org/2000/svg" xmlns:xlink="http://www.w3.org/1999/xlink" x="0px" y="0px"
	 viewBox="0 0 600 450" enable-background="new 0 0 600 450" xml:space="preserve">
<g>
	<rect fill="#00A6AF" width="150" height="150"/>
	<g>
		<path fill="#FF7000" d="M25,25v100h100V25H25z M54.6,82.7H44.5V67h3.1v13.3h7V82.7z M66.9,77c0,1.8-0.5,3.2-1.5,4.3
			c-1,1.1-2.3,1.7-4,1.7c-1.7,0-3.1-0.6-4-1.7c-1-1.1-1.5-2.5-1.5-4.3v-0.2c0-1.7,0.5-3.2,1.5-4.3c1-1.1,2.3-1.7,4-1.7
			c1.7,0,3.1,0.6,4,1.7c1,1.1,1.5,2.5,1.5,4.3V77z M75.2,73.8l-1.2,0c-0.5,0-0.9,0.1-1.2,0.3c-0.3,0.2-0.5,0.5-0.7,0.8v7.9H69V71.1
			h2.9l0.1,1.7c0.3-0.6,0.6-1.1,1.1-1.4c0.4-0.3,0.9-0.5,1.5-0.5c0.2,0,0.3,0,0.4,0c0.1,0,0.3,0.1,0.4,0.1L75.2,73.8z M86.8,77.8h-7
			l0,0.1c0.1,0.8,0.3,1.4,0.8,1.9s1.1,0.7,1.9,0.7c0.7,0,1.3-0.1,1.7-0.2c0.5-0.1,1-0.4,1.5-0.7l0.9,1.9c-0.5,0.4-1.1,0.7-1.9,1
			c-0.8,0.3-1.6,0.4-2.6,0.4c-1.7,0-3-0.5-4-1.6c-1-1.1-1.5-2.4-1.5-4.1v-0.4c0-1.7,0.5-3.2,1.4-4.3c1-1.1,2.2-1.7,3.8-1.7
			c1.6,0,2.8,0.5,3.7,1.4s1.3,2.2,1.3,3.8V77.8z M105.5,82.7h-3.1v-7.1c0-0.9-0.1-1.5-0.4-1.8c-0.3-0.3-0.7-0.5-1.3-0.5
			c-0.4,0-0.8,0.1-1.2,0.3c-0.3,0.2-0.6,0.5-0.8,0.8c0,0.1,0,0.3,0,0.4c0,0.1,0,0.2,0,0.3v7.7h-3.1v-7.1c0-0.9-0.1-1.5-0.4-1.8
			c-0.3-0.4-0.7-0.5-1.3-0.5c-0.4,0-0.8,0.1-1.1,0.2c-0.3,0.2-0.6,0.4-0.8,0.7v8.5h-3.1V71.1h2.9l0.1,1.5c0.4-0.6,0.8-1,1.4-1.3
			c0.6-0.3,1.2-0.5,2-0.5c0.7,0,1.4,0.2,1.9,0.5c0.5,0.3,0.9,0.8,1.2,1.5c0.4-0.6,0.8-1.1,1.4-1.5c0.6-0.4,1.2-0.5,2-0.5
			c1.1,0,2.1,0.4,2.7,1.2c0.7,0.8,1,2,1,3.6V82.7z"/>
		<path fill="#FF7000" d="M81.8,73.3c-0.6,0-1,0.2-1.4,0.7c-0.3,0.4-0.5,1-0.6,1.8l0,0.1h3.9v-0.3c0-0.7-0.2-1.2-0.5-1.6
			C83,73.5,82.5,73.3,81.8,73.3z"/>
		<path fill="#FF7000" d="M61.4,73.3c-0.8,0-1.4,0.3-1.8,1c-0.4,0.7-0.6,1.5-0.6,2.5V77c0,1.1,0.2,1.9,0.6,2.6c0.4,0.6,1,1,1.8,1
			c0.8,0,1.4-0.3,1.8-1c0.4-0.6,0.6-1.5,0.6-2.5v-0.2c0-1-0.2-1.9-0.6-2.5C62.8,73.6,62.2,73.3,61.4,73.3z"/>
	</g>
</g>
<g>
	<rect x="150" fill="#FF7000" width="150" height="150"/>
	<g>
		<path fill="#00A6AF" d="M175,25v100h100V25H175z M204.6,82.7h-10.1V67h3.1v13.3h7V82.7z M216.9,77c0,1.8-0.5,3.2-1.5,4.3
			c-1,1.1-2.3,1.7-4,1.7c-1.7,0-3.1-0.6-4-1.7c-1-1.1-1.5-2.5-1.5-4.3v-0.2c0-1.7,0.5-3.2,1.5-4.3c1-1.1,2.3-1.7,4-1.7
			c1.7,0,3.1,0.6,4,1.7c1,1.1,1.5,2.5,1.5,4.3V77z M225.2,73.8l-1.2,0c-0.5,0-0.9,0.1-1.2,0.3c-0.3,0.2-0.5,0.5-0.7,0.8v7.9H219
			V71.1h2.9l0.1,1.7c0.3-0.6,0.6-1.1,1.1-1.4c0.4-0.3,0.9-0.5,1.5-0.5c0.2,0,0.3,0,0.4,0c0.1,0,0.3,0.1,0.4,0.1L225.2,73.8z
			 M236.8,77.8h-7l0,0.1c0.1,0.8,0.3,1.4,0.8,1.9s1.1,0.7,1.9,0.7c0.7,0,1.3-0.1,1.7-0.2c0.5-0.1,1-0.4,1.5-0.7l0.9,1.9
			c-0.5,0.4-1.1,0.7-1.9,1c-0.8,0.3-1.6,0.4-2.6,0.4c-1.7,0-3-0.5-4-1.6c-1-1.1-1.5-2.4-1.5-4.1v-0.4c0-1.7,0.5-3.2,1.4-4.3
			c1-1.1,2.2-1.7,3.8-1.7c1.6,0,2.8,0.5,3.7,1.4s1.3,2.2,1.3,3.8V77.8z M255.5,82.7h-3.1v-7.1c0-0.9-0.1-1.5-0.4-1.8
			c-0.3-0.3-0.7-0.5-1.3-0.5c-0.4,0-0.8,0.1-1.2,0.3c-0.3,0.2-0.6,0.5-0.8,0.8c0,0.1,0,0.3,0,0.4c0,0.1,0,0.2,0,0.3v7.7h-3.1v-7.1
			c0-0.9-0.1-1.5-0.4-1.8c-0.3-0.4-0.7-0.5-1.3-0.5c-0.4,0-0.8,0.1-1.1,0.2c-0.3,0.2-0.6,0.4-0.8,0.7v8.5h-3.1V71.1h2.9l0.1,1.5
			c0.4-0.6,0.8-1,1.4-1.3c0.6-0.3,1.2-0.5,2-0.5c0.7,0,1.4,0.2,1.9,0.5c0.5,0.3,0.9,0.8,1.2,1.5c0.4-0.6,0.8-1.1,1.4-1.5
			c0.6-0.4,1.2-0.5,2-0.5c1.1,0,2.1,0.4,2.7,1.2c0.7,0.8,1,2,1,3.6V82.7z"/>
		<path fill="#00A6AF" d="M231.8,73.3c-0.6,0-1,0.2-1.4,0.7c-0.3,0.4-0.5,1-0.6,1.8l0,0.1h3.9v-0.3c0-0.7-0.2-1.2-0.5-1.6
			C233,73.5,232.5,73.3,231.8,73.3z"/>
		<path fill="#00A6AF" d="M211.4,73.3c-0.8,0-1.4,0.3-1.8,1c-0.4,0.7-0.6,1.5-0.6,2.5V77c0,1.1,0.2,1.9,0.6,2.6c0.4,0.6,1,1,1.8,1
			c0.8,0,1.4-0.3,1.8-1c0.4-0.6,0.6-1.5,0.6-2.5v-0.2c0-1-0.2-1.9-0.6-2.5C212.8,73.6,212.2,73.3,211.4,73.3z"/>
	</g>
</g>
<g>
	<rect x="300" fill="#E8E926" width="150" height="150"/>
	<g>
		<path fill="#35EDFF" d="M325,25v100h100V25H325z M354.6,82.7h-10.1V67h3.1v13.3h7V82.7z M366.9,77c0,1.8-0.5,3.2-1.5,4.3
			c-1,1.1-2.3,1.7-4,1.7c-1.7,0-3.1-0.6-4-1.7c-1-1.1-1.5-2.5-1.5-4.3v-0.2c0-1.7,0.5-3.2,1.5-4.3c1-1.1,2.3-1.7,4-1.7
			c1.7,0,3.1,0.6,4,1.7c1,1.1,1.5,2.5,1.5,4.3V77z M375.2,73.8l-1.2,0c-0.5,0-0.9,0.1-1.2,0.3c-0.3,0.2-0.5,0.5-0.7,0.8v7.9H369
			V71.1h2.9l0.1,1.7c0.3-0.6,0.6-1.1,1.1-1.4c0.4-0.3,0.9-0.5,1.5-0.5c0.2,0,0.3,0,0.4,0c0.1,0,0.3,0.1,0.4,0.1L375.2,73.8z
			 M386.8,77.8h-7l0,0.1c0.1,0.8,0.3,1.4,0.8,1.9s1.1,0.7,1.9,0.7c0.7,0,1.3-0.1,1.7-0.2c0.5-0.1,1-0.4,1.5-0.7l0.9,1.9
			c-0.5,0.4-1.1,0.7-1.9,1c-0.8,0.3-1.6,0.4-2.6,0.4c-1.7,0-3-0.5-4-1.6c-1-1.1-1.5-2.4-1.5-4.1v-0.4c0-1.7,0.5-3.2,1.4-4.3
			c1-1.1,2.2-1.7,3.8-1.7c1.6,0,2.8,0.5,3.7,1.4s1.3,2.2,1.3,3.8V77.8z M405.5,82.7h-3.1v-7.1c0-0.9-0.1-1.5-0.4-1.8
			c-0.3-0.3-0.7-0.5-1.3-0.5c-0.4,0-0.8,0.1-1.2,0.3c-0.3,0.2-0.6,0.5-0.8,0.8c0,0.1,0,0.3,0,0.4c0,0.1,0,0.2,0,0.3v7.7h-3.1v-7.1
			c0-0.9-0.1-1.5-0.4-1.8c-0.3-0.4-0.7-0.5-1.3-0.5c-0.4,0-0.8,0.1-1.1,0.2c-0.3,0.2-0.6,0.4-0.8,0.7v8.5h-3.1V71.1h2.9l0.1,1.5
			c0.4-0.6,0.8-1,1.4-1.3c0.6-0.3,1.2-0.5,2-0.5c0.7,0,1.4,0.2,1.9,0.5c0.5,0.3,0.9,0.8,1.2,1.5c0.4-0.6,0.8-1.1,1.4-1.5
			c0.6-0.4,1.2-0.5,2-0.5c1.1,0,2.1,0.4,2.7,1.2c0.7,0.8,1,2,1,3.6V82.7z"/>
		<path fill="#35EDFF" d="M381.8,73.3c-0.6,0-1,0.2-1.4,0.7c-0.3,0.4-0.5,1-0.6,1.8l0,0.1h3.9v-0.3c0-0.7-0.2-1.2-0.5-1.6
			C383,73.5,382.5,73.3,381.8,73.3z"/>
		<path fill="#35EDFF" d="M361.4,73.3c-0.8,0-1.4,0.3-1.8,1c-0.4,0.7-0.6,1.5-0.6,2.5V77c0,1.1,0.2,1.9,0.6,2.6c0.4,0.6,1,1,1.8,1
			c0.8,0,1.4-0.3,1.8-1c0.4-0.6,0.6-1.5,0.6-2.5v-0.2c0-1-0.2-1.9-0.6-2.5C362.8,73.6,362.2,73.3,361.4,73.3z"/>
	</g>
</g>
<g>
	<rect x="450" fill="#35EDFF" width="150" height="150"/>
	<g>
		<path fill="#E8E926" d="M475,25v100h100V25H475z M504.6,82.7h-10.1V67h3.1v13.3h7V82.7z M516.9,77c0,1.8-0.5,3.2-1.5,4.3
			c-1,1.1-2.3,1.7-4,1.7c-1.7,0-3.1-0.6-4-1.7c-1-1.1-1.5-2.5-1.5-4.3v-0.2c0-1.7,0.5-3.2,1.5-4.3c1-1.1,2.3-1.7,4-1.7
			c1.7,0,3.1,0.6,4,1.7c1,1.1,1.5,2.5,1.5,4.3V77z M525.2,73.8l-1.2,0c-0.5,0-0.9,0.1-1.2,0.3c-0.3,0.2-0.5,0.5-0.7,0.8v7.9H519
			V71.1h2.9l0.1,1.7c0.3-0.6,0.6-1.1,1.1-1.4c0.4-0.3,0.9-0.5,1.5-0.5c0.2,0,0.3,0,0.4,0c0.1,0,0.3,0.1,0.4,0.1L525.2,73.8z
			 M536.8,77.8h-7l0,0.1c0.1,0.8,0.3,1.4,0.8,1.9s1.1,0.7,1.9,0.7c0.7,0,1.3-0.1,1.7-0.2c0.5-0.1,1-0.4,1.5-0.7l0.9,1.9
			c-0.5,0.4-1.1,0.7-1.9,1c-0.8,0.3-1.6,0.4-2.6,0.4c-1.7,0-3-0.5-4-1.6c-1-1.1-1.5-2.4-1.5-4.1v-0.4c0-1.7,0.5-3.2,1.4-4.3
			c1-1.1,2.2-1.7,3.8-1.7c1.6,0,2.8,0.5,3.7,1.4s1.3,2.2,1.3,3.8V77.8z M555.5,82.7h-3.1v-7.1c0-0.9-0.1-1.5-0.4-1.8
			c-0.3-0.3-0.7-0.5-1.3-0.5c-0.4,0-0.8,0.1-1.2,0.3c-0.3,0.2-0.6,0.5-0.8,0.8c0,0.1,0,0.3,0,0.4c0,0.1,0,0.2,0,0.3v7.7h-3.1v-7.1
			c0-0.9-0.1-1.5-0.4-1.8c-0.3-0.4-0.7-0.5-1.3-0.5c-0.4,0-0.8,0.1-1.1,0.2c-0.3,0.2-0.6,0.4-0.8,0.7v8.5h-3.1V71.1h2.9l0.1,1.5
			c0.4-0.6,0.8-1,1.4-1.3c0.6-0.3,1.2-0.5,2-0.5c0.7,0,1.4,0.2,1.9,0.5c0.5,0.3,0.9,0.8,1.2,1.5c0.4-0.6,0.8-1.1,1.4-1.5
			c0.6-0.4,1.2-0.5,2-0.5c1.1,0,2.1,0.4,2.7,1.2c0.7,0.8,1,2,1,3.6V82.7z"/>
		<path fill="#E8E926" d="M531.8,73.3c-0.6,0-1,0.2-1.4,0.7c-0.3,0.4-0.5,1-0.6,1.8l0,0.1h3.9v-0.3c0-0.7-0.2-1.2-0.5-1.6
			C533,73.5,532.5,73.3,531.8,73.3z"/>
		<path fill="#E8E926" d="M511.4,73.3c-0.8,0-1.4,0.3-1.8,1c-0.4,0.7-0.6,1.5-0.6,2.5V77c0,1.1,0.2,1.9,0.6,2.6c0.4,0.6,1,1,1.8,1
			c0.8,0,1.4-0.3,1.8-1c0.4-0.6,0.6-1.5,0.6-2.5v-0.2c0-1-0.2-1.9-0.6-2.5C512.8,73.6,512.2,73.3,511.4,73.3z"/>
	</g>
</g>
<g>
	<rect y="150" fill="#FF1A00" width="150" height="150"/>
	<g>
		<path fill="#009B00" d="M25,175v100h100V175H25z M54.6,232.7H44.5V217h3.1v13.3h7V232.7z M66.9,227c0,1.8-0.5,3.2-1.5,4.3
			c-1,1.1-2.3,1.7-4,1.7c-1.7,0-3.1-0.6-4-1.7c-1-1.1-1.5-2.5-1.5-4.3v-0.2c0-1.7,0.5-3.2,1.5-4.3c1-1.1,2.3-1.7,4-1.7
			c1.7,0,3.1,0.6,4,1.7c1,1.1,1.5,2.5,1.5,4.3V227z M75.2,223.8l-1.2,0c-0.5,0-0.9,0.1-1.2,0.3c-0.3,0.2-0.5,0.5-0.7,0.8v7.9H69
			v-11.7h2.9l0.1,1.7c0.3-0.6,0.6-1.1,1.1-1.4c0.4-0.3,0.9-0.5,1.5-0.5c0.2,0,0.3,0,0.4,0c0.1,0,0.3,0.1,0.4,0.1L75.2,223.8z
			 M86.8,227.8h-7l0,0.1c0.1,0.8,0.3,1.4,0.8,1.9s1.1,0.7,1.9,0.7c0.7,0,1.3-0.1,1.7-0.2c0.5-0.1,1-0.4,1.5-0.7l0.9,1.9
			c-0.5,0.4-1.1,0.7-1.9,1c-0.8,0.3-1.6,0.4-2.6,0.4c-1.7,0-3-0.5-4-1.6c-1-1.1-1.5-2.4-1.5-4.1v-0.4c0-1.7,0.5-3.2,1.4-4.3
			c1-1.1,2.2-1.7,3.8-1.7c1.6,0,2.8,0.5,3.7,1.4s1.3,2.2,1.3,3.8V227.8z M105.5,232.7h-3.1v-7.1c0-0.9-0.1-1.5-0.4-1.8
			c-0.3-0.3-0.7-0.5-1.3-0.5c-0.4,0-0.8,0.1-1.2,0.3c-0.3,0.2-0.6,0.5-0.8,0.8c0,0.1,0,0.3,0,0.4c0,0.1,0,0.2,0,0.3v7.7h-3.1v-7.1
			c0-0.9-0.1-1.5-0.4-1.8c-0.3-0.4-0.7-0.5-1.3-0.5c-0.4,0-0.8,0.1-1.1,0.2c-0.3,0.2-0.6,0.4-0.8,0.7v8.5h-3.1v-11.7h2.9l0.1,1.5
			c0.4-0.6,0.8-1,1.4-1.3c0.6-0.3,1.2-0.5,2-0.5c0.7,0,1.4,0.2,1.9,0.5c0.5,0.3,0.9,0.8,1.2,1.5c0.4-0.6,0.8-1.1,1.4-1.5
			c0.6-0.4,1.2-0.5,2-0.5c1.1,0,2.1,0.4,2.7,1.2c0.7,0.8,1,2,1,3.6V232.7z"/>
		<path fill="#009B00" d="M81.8,223.3c-0.6,0-1,0.2-1.4,0.7c-0.3,0.4-0.5,1-0.6,1.8l0,0.1h3.9v-0.3c0-0.7-0.2-1.2-0.5-1.6
			C83,223.5,82.5,223.3,81.8,223.3z"/>
		<path fill="#009B00" d="M61.4,223.3c-0.8,0-1.4,0.3-1.8,1c-0.4,0.7-0.6,1.5-0.6,2.5v0.2c0,1.1,0.2,1.9,0.6,2.6c0.4,0.6,1,1,1.8,1
			c0.8,0,1.4-0.3,1.8-1c0.4-0.6,0.6-1.5,0.6-2.5v-0.2c0-1-0.2-1.9-0.6-2.5C62.8,223.6,62.2,223.3,61.4,223.3z"/>
	</g>
</g>
<g>
	<rect x="150" y="150" fill="#009B00" width="150" height="150"/>
	<g>
		<path fill="#FF1A00" d="M175,175v100h100V175H175z M204.6,232.7h-10.1V217h3.1v13.3h7V232.7z M216.9,227c0,1.8-0.5,3.2-1.5,4.3
			c-1,1.1-2.3,1.7-4,1.7c-1.7,0-3.1-0.6-4-1.7c-1-1.1-1.5-2.5-1.5-4.3v-0.2c0-1.7,0.5-3.2,1.5-4.3c1-1.1,2.3-1.7,4-1.7
			c1.7,0,3.1,0.6,4,1.7c1,1.1,1.5,2.5,1.5,4.3V227z M225.2,223.8l-1.2,0c-0.5,0-0.9,0.1-1.2,0.3c-0.3,0.2-0.5,0.5-0.7,0.8v7.9H219
			v-11.7h2.9l0.1,1.7c0.3-0.6,0.6-1.1,1.1-1.4c0.4-0.3,0.9-0.5,1.5-0.5c0.2,0,0.3,0,0.4,0c0.1,0,0.3,0.1,0.4,0.1L225.2,223.8z
			 M236.8,227.8h-7l0,0.1c0.1,0.8,0.3,1.4,0.8,1.9s1.1,0.7,1.9,0.7c0.7,0,1.3-0.1,1.7-0.2c0.5-0.1,1-0.4,1.5-0.7l0.9,1.9
			c-0.5,0.4-1.1,0.7-1.9,1c-0.8,0.3-1.6,0.4-2.6,0.4c-1.7,0-3-0.5-4-1.6c-1-1.1-1.5-2.4-1.5-4.1v-0.4c0-1.7,0.5-3.2,1.4-4.3
			c1-1.1,2.2-1.7,3.8-1.7c1.6,0,2.8,0.5,3.7,1.4s1.3,2.2,1.3,3.8V227.8z M255.5,232.7h-3.1v-7.1c0-0.9-0.1-1.5-0.4-1.8
			c-0.3-0.3-0.7-0.5-1.3-0.5c-0.4,0-0.8,0.1-1.2,0.3c-0.3,0.2-0.6,0.5-0.8,0.8c0,0.1,0,0.3,0,0.4c0,0.1,0,0.2,0,0.3v7.7h-3.1v-7.1
			c0-0.9-0.1-1.5-0.4-1.8c-0.3-0.4-0.7-0.5-1.3-0.5c-0.4,0-0.8,0.1-1.1,0.2c-0.3,0.2-0.6,0.4-0.8,0.7v8.5h-3.1v-11.7h2.9l0.1,1.5
			c0.4-0.6,0.8-1,1.4-1.3c0.6-0.3,1.2-0.5,2-0.5c0.7,0,1.4,0.2,1.9,0.5c0.5,0.3,0.9,0.8,1.2,1.5c0.4-0.6,0.8-1.1,1.4-1.5
			c0.6-0.4,1.2-0.5,2-0.5c1.1,0,2.1,0.4,2.7,1.2c0.7,0.8,1,2,1,3.6V232.7z"/>
		<path fill="#FF1A00" d="M231.8,223.3c-0.6,0-1,0.2-1.4,0.7c-0.3,0.4-0.5,1-0.6,1.8l0,0.1h3.9v-0.3c0-0.7-0.2-1.2-0.5-1.6
			C233,223.5,232.5,223.3,231.8,223.3z"/>
		<path fill="#FF1A00" d="M211.4,223.3c-0.8,0-1.4,0.3-1.8,1c-0.4,0.7-0.6,1.5-0.6,2.5v0.2c0,1.1,0.2,1.9,0.6,2.6c0.4,0.6,1,1,1.8,1
			c0.8,0,1.4-0.3,1.8-1c0.4-0.6,0.6-1.5,0.6-2.5v-0.2c0-1-0.2-1.9-0.6-2.5C212.8,223.6,212.2,223.3,211.4,223.3z"/>
	</g>
</g>
<g>
	<rect x="300" y="150" fill="#CB0042" width="150" height="150"/>
	<g>
		<path fill="#0067BA" d="M325,175v100h100V175H325z M354.6,232.7h-10.1V217h3.1v13.3h7V232.7z M366.9,227c0,1.8-0.5,3.2-1.5,4.3
			c-1,1.1-2.3,1.7-4,1.7c-1.7,0-3.1-0.6-4-1.7c-1-1.1-1.5-2.5-1.5-4.3v-0.2c0-1.7,0.5-3.2,1.5-4.3c1-1.1,2.3-1.7,4-1.7
			c1.7,0,3.1,0.6,4,1.7c1,1.1,1.5,2.5,1.5,4.3V227z M375.2,223.8l-1.2,0c-0.5,0-0.9,0.1-1.2,0.3c-0.3,0.2-0.5,0.5-0.7,0.8v7.9H369
			v-11.7h2.9l0.1,1.7c0.3-0.6,0.6-1.1,1.1-1.4c0.4-0.3,0.9-0.5,1.5-0.5c0.2,0,0.3,0,0.4,0c0.1,0,0.3,0.1,0.4,0.1L375.2,223.8z
			 M386.8,227.8h-7l0,0.1c0.1,0.8,0.3,1.4,0.8,1.9s1.1,0.7,1.9,0.7c0.7,0,1.3-0.1,1.7-0.2c0.5-0.1,1-0.4,1.5-0.7l0.9,1.9
			c-0.5,0.4-1.1,0.7-1.9,1c-0.8,0.3-1.6,0.4-2.6,0.4c-1.7,0-3-0.5-4-1.6c-1-1.1-1.5-2.4-1.5-4.1v-0.4c0-1.7,0.5-3.2,1.4-4.3
			c1-1.1,2.2-1.7,3.8-1.7c1.6,0,2.8,0.5,3.7,1.4s1.3,2.2,1.3,3.8V227.8z M405.5,232.7h-3.1v-7.1c0-0.9-0.1-1.5-0.4-1.8
			c-0.3-0.3-0.7-0.5-1.3-0.5c-0.4,0-0.8,0.1-1.2,0.3c-0.3,0.2-0.6,0.5-0.8,0.8c0,0.1,0,0.3,0,0.4c0,0.1,0,0.2,0,0.3v7.7h-3.1v-7.1
			c0-0.9-0.1-1.5-0.4-1.8c-0.3-0.4-0.7-0.5-1.3-0.5c-0.4,0-0.8,0.1-1.1,0.2c-0.3,0.2-0.6,0.4-0.8,0.7v8.5h-3.1v-11.7h2.9l0.1,1.5
			c0.4-0.6,0.8-1,1.4-1.3c0.6-0.3,1.2-0.5,2-0.5c0.7,0,1.4,0.2,1.9,0.5c0.5,0.3,0.9,0.8,1.2,1.5c0.4-0.6,0.8-1.1,1.4-1.5
			c0.6-0.4,1.2-0.5,2-0.5c1.1,0,2.1,0.4,2.7,1.2c0.7,0.8,1,2,1,3.6V232.7z"/>
		<path fill="#0067BA" d="M381.8,223.3c-0.6,0-1,0.2-1.4,0.7c-0.3,0.4-0.5,1-0.6,1.8l0,0.1h3.9v-0.3c0-0.7-0.2-1.2-0.5-1.6
			C383,223.5,382.5,223.3,381.8,223.3z"/>
		<path fill="#0067BA" d="M361.4,223.3c-0.8,0-1.4,0.3-1.8,1c-0.4,0.7-0.6,1.5-0.6,2.5v0.2c0,1.1,0.2,1.9,0.6,2.6c0.4,0.6,1,1,1.8,1
			c0.8,0,1.4-0.3,1.8-1c0.4-0.6,0.6-1.5,0.6-2.5v-0.2c0-1-0.2-1.9-0.6-2.5C362.8,223.6,362.2,223.3,361.4,223.3z"/>
	</g>
</g>
<g>
	<rect x="450" y="150" fill="#0067BA" width="150" height="150"/>
	<g>
		<path fill="#CB0042" d="M475,175v100h100V175H475z M504.6,232.7h-10.1V217h3.1v13.3h7V232.7z M516.9,227c0,1.8-0.5,3.2-1.5,4.3
			c-1,1.1-2.3,1.7-4,1.7c-1.7,0-3.1-0.6-4-1.7c-1-1.1-1.5-2.5-1.5-4.3v-0.2c0-1.7,0.5-3.2,1.5-4.3c1-1.1,2.3-1.7,4-1.7
			c1.7,0,3.1,0.6,4,1.7c1,1.1,1.5,2.5,1.5,4.3V227z M525.2,223.8l-1.2,0c-0.5,0-0.9,0.1-1.2,0.3c-0.3,0.2-0.5,0.5-0.7,0.8v7.9H519
			v-11.7h2.9l0.1,1.7c0.3-0.6,0.6-1.1,1.1-1.4c0.4-0.3,0.9-0.5,1.5-0.5c0.2,0,0.3,0,0.4,0c0.1,0,0.3,0.1,0.4,0.1L525.2,223.8z
			 M536.8,227.8h-7l0,0.1c0.1,0.8,0.3,1.4,0.8,1.9s1.1,0.7,1.9,0.7c0.7,0,1.3-0.1,1.7-0.2c0.5-0.1,1-0.4,1.5-0.7l0.9,1.9
			c-0.5,0.4-1.1,0.7-1.9,1c-0.8,0.3-1.6,0.4-2.6,0.4c-1.7,0-3-0.5-4-1.6c-1-1.1-1.5-2.4-1.5-4.1v-0.4c0-1.7,0.5-3.2,1.4-4.3
			c1-1.1,2.2-1.7,3.8-1.7c1.6,0,2.8,0.5,3.7,1.4s1.3,2.2,1.3,3.8V227.8z M555.5,232.7h-3.1v-7.1c0-0.9-0.1-1.5-0.4-1.8
			c-0.3-0.3-0.7-0.5-1.3-0.5c-0.4,0-0.8,0.1-1.2,0.3c-0.3,0.2-0.6,0.5-0.8,0.8c0,0.1,0,0.3,0,0.4c0,0.1,0,0.2,0,0.3v7.7h-3.1v-7.1
			c0-0.9-0.1-1.5-0.4-1.8c-0.3-0.4-0.7-0.5-1.3-0.5c-0.4,0-0.8,0.1-1.1,0.2c-0.3,0.2-0.6,0.4-0.8,0.7v8.5h-3.1v-11.7h2.9l0.1,1.5
			c0.4-0.6,0.8-1,1.4-1.3c0.6-0.3,1.2-0.5,2-0.5c0.7,0,1.4,0.2,1.9,0.5c0.5,0.3,0.9,0.8,1.2,1.5c0.4-0.6,0.8-1.1,1.4-1.5
			c0.6-0.4,1.2-0.5,2-0.5c1.1,0,2.1,0.4,2.7,1.2c0.7,0.8,1,2,1,3.6V232.7z"/>
		<path fill="#CB0042" d="M531.8,223.3c-0.6,0-1,0.2-1.4,0.7c-0.3,0.4-0.5,1-0.6,1.8l0,0.1h3.9v-0.3c0-0.7-0.2-1.2-0.5-1.6
			C533,223.5,532.5,223.3,531.8,223.3z"/>
		<path fill="#CB0042" d="M511.4,223.3c-0.8,0-1.4,0.3-1.8,1c-0.4,0.7-0.6,1.5-0.6,2.5v0.2c0,1.1,0.2,1.9,0.6,2.6c0.4,0.6,1,1,1.8,1
			c0.8,0,1.4-0.3,1.8-1c0.4-0.6,0.6-1.5,0.6-2.5v-0.2c0-1-0.2-1.9-0.6-2.5C512.8,223.6,512.2,223.3,511.4,223.3z"/>
	</g>
</g>
<g>
	<rect y="300" fill="#5FA41C" width="150" height="150"/>
	<g>
		<path fill="#FF3AC6" d="M25,325v100h100V325H25z M54.6,382.7H44.5V367h3.1v13.3h7V382.7z M66.9,377c0,1.8-0.5,3.2-1.5,4.3
			c-1,1.1-2.3,1.7-4,1.7c-1.7,0-3.1-0.6-4-1.7c-1-1.1-1.5-2.5-1.5-4.3v-0.2c0-1.7,0.5-3.2,1.5-4.3c1-1.1,2.3-1.7,4-1.7
			c1.7,0,3.1,0.6,4,1.7c1,1.1,1.5,2.5,1.5,4.3V377z M75.2,373.8l-1.2,0c-0.5,0-0.9,0.1-1.2,0.3c-0.3,0.2-0.5,0.5-0.7,0.8v7.9H69
			v-11.7h2.9l0.1,1.7c0.3-0.6,0.6-1.1,1.1-1.4c0.4-0.3,0.9-0.5,1.5-0.5c0.2,0,0.3,0,0.4,0c0.1,0,0.3,0.1,0.4,0.1L75.2,373.8z
			 M86.8,377.8h-7l0,0.1c0.1,0.8,0.3,1.4,0.8,1.9s1.1,0.7,1.9,0.7c0.7,0,1.3-0.1,1.7-0.2c0.5-0.1,1-0.4,1.5-0.7l0.9,1.9
			c-0.5,0.4-1.1,0.7-1.9,1c-0.8,0.3-1.6,0.4-2.6,0.4c-1.7,0-3-0.5-4-1.6c-1-1.1-1.5-2.4-1.5-4.1v-0.4c0-1.7,0.5-3.2,1.4-4.3
			c1-1.1,2.2-1.7,3.8-1.7c1.6,0,2.8,0.5,3.7,1.4s1.3,2.2,1.3,3.8V377.8z M105.5,382.7h-3.1v-7.1c0-0.9-0.1-1.5-0.4-1.8
			c-0.3-0.3-0.7-0.5-1.3-0.5c-0.4,0-0.8,0.1-1.2,0.3c-0.3,0.2-0.6,0.5-0.8,0.8c0,0.1,0,0.3,0,0.4c0,0.1,0,0.2,0,0.3v7.7h-3.1v-7.1
			c0-0.9-0.1-1.5-0.4-1.8c-0.3-0.4-0.7-0.5-1.3-0.5c-0.4,0-0.8,0.1-1.1,0.2c-0.3,0.2-0.6,0.4-0.8,0.7v8.5h-3.1v-11.7h2.9l0.1,1.5
			c0.4-0.6,0.8-1,1.4-1.3c0.6-0.3,1.2-0.5,2-0.5c0.7,0,1.4,0.2,1.9,0.5c0.5,0.3,0.9,0.8,1.2,1.5c0.4-0.6,0.8-1.1,1.4-1.5
			c0.6-0.4,1.2-0.5,2-0.5c1.1,0,2.1,0.4,2.7,1.2c0.7,0.8,1,2,1,3.6V382.7z"/>
		<path fill="#FF3AC6" d="M81.8,373.3c-0.6,0-1,0.2-1.4,0.7c-0.3,0.4-0.5,1-0.6,1.8l0,0.1h3.9v-0.3c0-0.7-0.2-1.2-0.5-1.6
			C83,373.5,82.5,373.3,81.8,373.3z"/>
		<path fill="#FF3AC6" d="M61.4,373.3c-0.8,0-1.4,0.3-1.8,1c-0.4,0.7-0.6,1.5-0.6,2.5v0.2c0,1.1,0.2,1.9,0.6,2.6c0.4,0.6,1,1,1.8,1
			c0.8,0,1.4-0.3,1.8-1c0.4-0.6,0.6-1.5,0.6-2.5v-0.2c0-1-0.2-1.9-0.6-2.5C62.8,373.6,62.2,373.3,61.4,373.3z"/>
	</g>
</g>
<g>
	<rect x="150" y="300" fill="#FF3AC6" width="150" height="150"/>
	<g>
		<path fill="#5FA41C" d="M175,325v100h100V325H175z M204.6,382.7h-10.1V367h3.1v13.3h7V382.7z M216.9,377c0,1.8-0.5,3.2-1.5,4.3
			c-1,1.1-2.3,1.7-4,1.7c-1.7,0-3.1-0.6-4-1.7c-1-1.1-1.5-2.5-1.5-4.3v-0.2c0-1.7,0.5-3.2,1.5-4.3c1-1.1,2.3-1.7,4-1.7
			c1.7,0,3.1,0.6,4,1.7c1,1.1,1.5,2.5,1.5,4.3V377z M225.2,373.8l-1.2,0c-0.5,0-0.9,0.1-1.2,0.3c-0.3,0.2-0.5,0.5-0.7,0.8v7.9H219
			v-11.7h2.9l0.1,1.7c0.3-0.6,0.6-1.1,1.1-1.4c0.4-0.3,0.9-0.5,1.5-0.5c0.2,0,0.3,0,0.4,0c0.1,0,0.3,0.1,0.4,0.1L225.2,373.8z
			 M236.8,377.8h-7l0,0.1c0.1,0.8,0.3,1.4,0.8,1.9s1.1,0.7,1.9,0.7c0.7,0,1.3-0.1,1.7-0.2c0.5-0.1,1-0.4,1.5-0.7l0.9,1.9
			c-0.5,0.4-1.1,0.7-1.9,1c-0.8,0.3-1.6,0.4-2.6,0.4c-1.7,0-3-0.5-4-1.6c-1-1.1-1.5-2.4-1.5-4.1v-0.4c0-1.7,0.5-3.2,1.4-4.3
			c1-1.1,2.2-1.7,3.8-1.7c1.6,0,2.8,0.5,3.7,1.4s1.3,2.2,1.3,3.8V377.8z M255.5,382.7h-3.1v-7.1c0-0.9-0.1-1.5-0.4-1.8
			c-0.3-0.3-0.7-0.5-1.3-0.5c-0.4,0-0.8,0.1-1.2,0.3c-0.3,0.2-0.6,0.5-0.8,0.8c0,0.1,0,0.3,0,0.4c0,0.1,0,0.2,0,0.3v7.7h-3.1v-7.1
			c0-0.9-0.1-1.5-0.4-1.8c-0.3-0.4-0.7-0.5-1.3-0.5c-0.4,0-0.8,0.1-1.1,0.2c-0.3,0.2-0.6,0.4-0.8,0.7v8.5h-3.1v-11.7h2.9l0.1,1.5
			c0.4-0.6,0.8-1,1.4-1.3c0.6-0.3,1.2-0.5,2-0.5c0.7,0,1.4,0.2,1.9,0.5c0.5,0.3,0.9,0.8,1.2,1.5c0.4-0.6,0.8-1.1,1.4-1.5
			c0.6-0.4,1.2-0.5,2-0.5c1.1,0,2.1,0.4,2.7,1.2c0.7,0.8,1,2,1,3.6V382.7z"/>
		<path fill="#5FA41C" d="M231.8,373.3c-0.6,0-1,0.2-1.4,0.7c-0.3,0.4-0.5,1-0.6,1.8l0,0.1h3.9v-0.3c0-0.7-0.2-1.2-0.5-1.6
			C233,373.5,232.5,373.3,231.8,373.3z"/>
		<path fill="#5FA41C" d="M211.4,373.3c-0.8,0-1.4,0.3-1.8,1c-0.4,0.7-0.6,1.5-0.6,2.5v0.2c0,1.1,0.2,1.9,0.6,2.6c0.4,0.6,1,1,1.8,1
			c0.8,0,1.4-0.3,1.8-1c0.4-0.6,0.6-1.5,0.6-2.5v-0.2c0-1-0.2-1.9-0.6-2.5C212.8,373.6,212.2,373.3,211.4,373.3z"/>
	</g>
</g>
<g>
	<rect x="300" y="300" fill="#F09D00" width="150" height="150"/>
	<g>
		<path fill="#00B2FF" d="M325,325v100h100V325H325z M354.6,382.7h-10.1V367h3.1v13.3h7V382.7z M366.9,377c0,1.8-0.5,3.2-1.5,4.3
			c-1,1.1-2.3,1.7-4,1.7c-1.7,0-3.1-0.6-4-1.7c-1-1.1-1.5-2.5-1.5-4.3v-0.2c0-1.7,0.5-3.2,1.5-4.3c1-1.1,2.3-1.7,4-1.7
			c1.7,0,3.1,0.6,4,1.7c1,1.1,1.5,2.5,1.5,4.3V377z M375.2,373.8l-1.2,0c-0.5,0-0.9,0.1-1.2,0.3c-0.3,0.2-0.5,0.5-0.7,0.8v7.9H369
			v-11.7h2.9l0.1,1.7c0.3-0.6,0.6-1.1,1.1-1.4c0.4-0.3,0.9-0.5,1.5-0.5c0.2,0,0.3,0,0.4,0c0.1,0,0.3,0.1,0.4,0.1L375.2,373.8z
			 M386.8,377.8h-7l0,0.1c0.1,0.8,0.3,1.4,0.8,1.9s1.1,0.7,1.9,0.7c0.7,0,1.3-0.1,1.7-0.2c0.5-0.1,1-0.4,1.5-0.7l0.9,1.9
			c-0.5,0.4-1.1,0.7-1.9,1c-0.8,0.3-1.6,0.4-2.6,0.4c-1.7,0-3-0.5-4-1.6c-1-1.1-1.5-2.4-1.5-4.1v-0.4c0-1.7,0.5-3.2,1.4-4.3
			c1-1.1,2.2-1.7,3.8-1.7c1.6,0,2.8,0.5,3.7,1.4s1.3,2.2,1.3,3.8V377.8z M405.5,382.7h-3.1v-7.1c0-0.9-0.1-1.5-0.4-1.8
			c-0.3-0.3-0.7-0.5-1.3-0.5c-0.4,0-0.8,0.1-1.2,0.3c-0.3,0.2-0.6,0.5-0.8,0.8c0,0.1,0,0.3,0,0.4c0,0.1,0,0.2,0,0.3v7.7h-3.1v-7.1
			c0-0.9-0.1-1.5-0.4-1.8c-0.3-0.4-0.7-0.5-1.3-0.5c-0.4,0-0.8,0.1-1.1,0.2c-0.3,0.2-0.6,0.4-0.8,0.7v8.5h-3.1v-11.7h2.9l0.1,1.5
			c0.4-0.6,0.8-1,1.4-1.3c0.6-0.3,1.2-0.5,2-0.5c0.7,0,1.4,0.2,1.9,0.5c0.5,0.3,0.9,0.8,1.2,1.5c0.4-0.6,0.8-1.1,1.4-1.5
			c0.6-0.4,1.2-0.5,2-0.5c1.1,0,2.1,0.4,2.7,1.2c0.7,0.8,1,2,1,3.6V382.7z"/>
		<path fill="#00B2FF" d="M381.8,373.3c-0.6,0-1,0.2-1.4,0.7c-0.3,0.4-0.5,1-0.6,1.8l0,0.1h3.9v-0.3c0-0.7-0.2-1.2-0.5-1.6
			C383,373.5,382.5,373.3,381.8,373.3z"/>
		<path fill="#00B2FF" d="M361.4,373.3c-0.8,0-1.4,0.3-1.8,1c-0.4,0.7-0.6,1.5-0.6,2.5v0.2c0,1.1,0.2,1.9,0.6,2.6c0.4,0.6,1,1,1.8,1
			c0.8,0,1.4-0.3,1.8-1c0.4-0.6,0.6-1.5,0.6-2.5v-0.2c0-1-0.2-1.9-0.6-2.5C362.8,373.6,362.2,373.3,361.4,373.3z"/>
	</g>
</g>
<g>
	<rect x="450" y="300" fill="#00B2FF" width="150" height="150"/>
	<g>
		<path fill="#F09D00" d="M475,325v100h100V325H475z M504.6,382.7h-10.1V367h3.1v13.3h7V382.7z M516.9,377c0,1.8-0.5,3.2-1.5,4.3
			c-1,1.1-2.3,1.7-4,1.7c-1.7,0-3.1-0.6-4-1.7c-1-1.1-1.5-2.5-1.5-4.3v-0.2c0-1.7,0.5-3.2,1.5-4.3c1-1.1,2.3-1.7,4-1.7
			c1.7,0,3.1,0.6,4,1.7c1,1.1,1.5,2.5,1.5,4.3V377z M525.2,373.8l-1.2,0c-0.5,0-0.9,0.1-1.2,0.3c-0.3,0.2-0.5,0.5-0.7,0.8v7.9H519
			v-11.7h2.9l0.1,1.7c0.3-0.6,0.6-1.1,1.1-1.4c0.4-0.3,0.9-0.5,1.5-0.5c0.2,0,0.3,0,0.4,0c0.1,0,0.3,0.1,0.4,0.1L525.2,373.8z
			 M536.8,377.8h-7l0,0.1c0.1,0.8,0.3,1.4,0.8,1.9s1.1,0.7,1.9,0.7c0.7,0,1.3-0.1,1.7-0.2c0.5-0.1,1-0.4,1.5-0.7l0.9,1.9
			c-0.5,0.4-1.1,0.7-1.9,1c-0.8,0.3-1.6,0.4-2.6,0.4c-1.7,0-3-0.5-4-1.6c-1-1.1-1.5-2.4-1.5-4.1v-0.4c0-1.7,0.5-3.2,1.4-4.3
			c1-1.1,2.2-1.7,3.8-1.7c1.6,0,2.8,0.5,3.7,1.4s1.3,2.2,1.3,3.8V377.8z M555.5,382.7h-3.1v-7.1c0-0.9-0.1-1.5-0.4-1.8
			c-0.3-0.3-0.7-0.5-1.3-0.5c-0.4,0-0.8,0.1-1.2,0.3c-0.3,0.2-0.6,0.5-0.8,0.8c0,0.1,0,0.3,0,0.4c0,0.1,0,0.2,0,0.3v7.7h-3.1v-7.1
			c0-0.9-0.1-1.5-0.4-1.8c-0.3-0.4-0.7-0.5-1.3-0.5c-0.4,0-0.8,0.1-1.1,0.2c-0.3,0.2-0.6,0.4-0.8,0.7v8.5h-3.1v-11.7h2.9l0.1,1.5
			c0.4-0.6,0.8-1,1.4-1.3c0.6-0.3,1.2-0.5,2-0.5c0.7,0,1.4,0.2,1.9,0.5c0.5,0.3,0.9,0.8,1.2,1.5c0.4-0.6,0.8-1.1,1.4-1.5
			c0.6-0.4,1.2-0.5,2-0.5c1.1,0,2.1,0.4,2.7,1.2c0.7,0.8,1,2,1,3.6V382.7z"/>
		<path fill="#F09D00" d="M531.8,373.3c-0.6,0-1,0.2-1.4,0.7c-0.3,0.4-0.5,1-0.6,1.8l0,0.1h3.9v-0.3c0-0.7-0.2-1.2-0.5-1.6
			C533,373.5,532.5,373.3,531.8,373.3z"/>
		<path fill="#F09D00" d="M511.4,373.3c-0.8,0-1.4,0.3-1.8,1c-0.4,0.7-0.6,1.5-0.6,2.5v0.2c0,1.1,0.2,1.9,0.6,2.6c0.4,0.6,1,1,1.8,1
			c0.8,0,1.4-0.3,1.8-1c0.4-0.6,0.6-1.5,0.6-2.5v-0.2c0-1-0.2-1.9-0.6-2.5C512.8,373.6,512.2,373.3,511.4,373.3z"/>
	</g>
</g>
</svg>
