<?xml version="1.0" encoding="utf-8"?>
<!-- Generator: Adobe Illustrator 26.0.2, SVG Export Plug-In . SVG Version: 6.00 Build 0)  -->
<svg version="1.1" id="Layer_1" xmlns="http://www.w3.org/2000/svg" xmlns:xlink="http://www.w3.org/1999/xlink" x="0px" y="0px"
	 width="700px" height="700px" viewBox="0 0 700 700" style="enable-background:new 0 0 700 700;" xml:space="preserve">
<path d="M486.6,256.1H213.4c-9.1,0-17.6-4.9-22.2-12.8c-4.6-7.9-4.6-17.7,0-25.6c4.6-7.9,13-12.8,22.2-12.8h273.2
	c9.1,0,17.6,4.9,22.2,12.8c4.6,7.9,4.6,17.7,0,25.6S495.7,256.1,486.6,256.1L486.6,256.1z"/>
<path d="M486.6,375.6H213.4c-9.1,0-17.6-4.9-22.2-12.8c-4.6-7.9-4.6-17.7,0-25.6c4.6-7.9,13-12.8,22.2-12.8h273.2
	c9.1,0,17.6,4.9,22.2,12.8c4.6,7.9,4.6,17.7,0,25.6C504.2,370.7,495.7,375.6,486.6,375.6L486.6,375.6z"/>
<path d="M486.6,495.1H213.4c-9.1,0-17.6-4.9-22.2-12.8c-4.6-7.9-4.6-17.7,0-25.6c4.6-7.9,13-12.8,22.2-12.8h273.2
	c9.1,0,17.6,4.9,22.2,12.8c4.6,7.9,4.6,17.7,0,25.6C504.2,490.2,495.7,495.1,486.6,495.1L486.6,495.1z"/>
<path d="M350,700c-92.8,0-181.8-36.9-247.5-102.5C36.9,531.8,0,442.8,0,350s36.9-181.8,102.5-247.5C168.2,36.9,257.2,0,350,0
	s181.8,36.9,247.5,102.5C663.1,168.2,700,257.2,700,350s-36.9,181.8-102.5,247.5C531.8,663.1,442.8,700,350,700L350,700z M350,51.2
	c-79.2,0-155.2,31.5-211.3,87.5S51.2,270.8,51.2,350s31.5,155.2,87.5,211.3c56,56,132,87.5,211.3,87.5s155.2-31.5,211.3-87.5
	c56-56,87.5-132,87.5-211.3s-31.5-155.2-87.5-211.3S429.2,51.2,350,51.2L350,51.2z"/>
</svg>
