<?xml version="1.0" encoding="UTF-8"?>
<svg width="623px" height="264px" viewBox="0 0 623 264" version="1.1" xmlns="http://www.w3.org/2000/svg" xmlns:xlink="http://www.w3.org/1999/xlink">
    <title>Mechaneyes Logo</title>
    <defs>
        <polygon id="path-1" points="-8 324.779 629.874 324.779 629.874 24 -8 24"></polygon>
    </defs>
    <g id="Mechaneyes-Logo" stroke="none" stroke-width="1" fill="none" fill-rule="evenodd">
        <path d="M91.1031,86.3938 C91.1031,91.0548 94.9891,96.1168 101.9881,99.2268 L134.2421,112.8238 C140.8471,115.5488 144.3431,119.0438 144.3431,122.5468 C144.3431,126.0438 141.2361,127.2018 139.2921,127.2018 C136.1861,127.2018 135.4071,126.4228 128.8011,123.6978 L68.9511,98.4478 C62.3451,95.7238 58.4591,90.6688 58.4591,87.1728 C58.4591,80.5598 63.5111,77.8508 70.8961,74.3478 C76.7251,71.6308 134.6311,46.3578 138.9031,46.3578 C141.6261,46.3578 144.3431,47.1448 144.3431,51.0338 C144.3431,53.3648 141.6261,57.6398 135.7971,60.3568 L102.3771,74.3478 C94.9891,77.4578 91.1031,82.5048 91.1031,86.3938" id="Fill-1" fill="#000000"></path>
        <path d="M161.0472,131.0911 L203.0202,29.2641 C209.2402,13.7221 213.9012,12.9431 217.0072,12.9431 C220.1172,12.9431 226.3412,14.4941 220.8972,28.0991 L178.1482,132.2561 C172.7042,145.8531 168.8222,149.3571 163.3812,149.3571 C156.7722,149.3571 156.7722,141.1921 161.0472,131.0911" id="Fill-3" fill="#000000"></path>
        <path d="M445.9041,123.1155 C445.9041,118.4545 449.7901,115.3515 454.4551,113.4075 L488.6561,98.6365 C495.2631,95.9135 498.7581,91.2515 498.7581,87.3625 C498.7581,81.9145 495.2631,77.6535 488.2671,74.9305 L457.9541,62.1045 C450.1761,58.6085 445.5181,55.4985 445.5181,51.2235 C445.5181,47.7275 448.2351,46.1755 450.5691,46.1755 C452.9001,46.1755 454.8451,46.9475 456.0131,47.3335 L520.1341,74.5435 C531.4061,79.2055 532.1851,85.0315 532.1851,86.9835 C532.1851,92.0315 528.6811,95.5265 522.4691,98.2435 C518.9661,99.8015 456.7821,127.7915 451.3451,127.7915 C446.6801,127.7915 445.9041,125.0675 445.9041,123.1155" id="Fill-5" fill="#000000"></path>
        <path d="M402.5947,45.5128 L352.0197,96.0798 L409.6697,96.0798 C410.5807,91.2158 411.1707,86.2628 411.1707,81.1498 C411.1707,68.3018 407.9217,56.3068 402.5947,45.5128" id="Fill-7" fill="#000000"></path>
        <path d="M315.0982,103.225 L315.0982,160.792 C319.9552,161.702 324.9122,162.299 330.0242,162.299 C342.8652,162.299 354.8282,159.051 365.6252,153.742 L315.0982,103.225 Z" id="Fill-9" fill="#000000"></path>
        <path d="M333.823,106.7795 L375.432,148.4025 C390.056,138.5265 400.927,123.8445 406.633,106.7795 L333.823,106.7795 Z" id="Fill-11" fill="#000000"></path>
        <path d="M250.3828,66.2266 C249.4838,71.0846 248.8788,76.0366 248.8788,81.1496 C248.8788,94.0266 252.1448,106.0366 257.4768,116.8296 L308.0798,66.2266 L250.3828,66.2266 Z" id="Fill-13" fill="#000000"></path>
        <path d="M355.6615,77.2973 L397.2625,35.7103 C387.3585,21.1073 372.6975,10.2473 355.6615,4.5453 L355.6615,77.2973 Z" id="Fill-15" fill="#000000"></path>
        <path d="M344.9481,59.5622 L344.9481,1.5152 C340.1011,0.6122 335.1381,0.0002 330.0251,0.0002 C317.0721,0.0002 304.9851,3.3292 294.1191,8.7252 L344.9481,59.5622 Z" id="Fill-17" fill="#000000"></path>
        <path d="M304.3803,85.0752 L262.8233,126.6182 C272.7133,141.1992 287.3633,152.0522 304.3803,157.7612 L304.3803,85.0752 Z" id="Fill-19" fill="#000000"></path>
        <path d="M284.3593,14.1079 C269.8803,23.9989 259.0943,38.5649 253.4173,55.5059 L325.7573,55.5059 L284.3593,14.1079 Z" id="Fill-21" fill="#000000"></path>
        <mask id="mask-2" fill="white">
            <use xlink:href="#path-1"></use>
        </mask>
        <g id="Clip-23"></g>
        <text id="Mec" mask="url(#mask-2)" font-family="ChollaUnicaseOT-Regular, Cholla Unicase OT" font-size="129.1528" font-weight="normal" fill="#000000">
            <tspan x="-8" y="262.422532">Mec</tspan>
        </text>
        <text id="haneyes" mask="url(#mask-2)" font-family="ChollaUnicaseOT-Regular, Cholla Unicase OT" font-size="129.1528" font-weight="normal" fill="#000000">
            <tspan x="185.987506" y="262.422532">haneyes</tspan>
        </text>
    </g>
</svg>