<?xml version="1.0" encoding="UTF-8"?>
<svg width="354px" height="504px" viewBox="0 0 354 504" version="1.1" xmlns="http://www.w3.org/2000/svg" xmlns:xlink="http://www.w3.org/1999/xlink">
    <title>Artboard</title>
    <g id="Artboard" stroke="none" stroke-width="1" fill="none" fill-rule="evenodd">
        <path d="M177,0 C79.559,0 0.6,78.961 0.6,176.4 C0.6,214.478 12.92,258.162 33.639,287.28 L176.999,504 L320.359,287.28 C341.078,258.159 353.398,215.042 353.398,176.4 C353.398,78.959 274.441,0 176.998,0 L177,0 Z M177,243.6 C140.039,243.6 109.801,213.362 109.801,176.401 C109.801,139.44 140.039,109.202 177,109.202 C213.961,109.202 244.199,139.44 244.199,176.401 C244.199,213.358 213.961,243.6 177,243.6 Z" id="Shape" fill="#000000" fill-rule="nonzero"></path>
    </g>
</svg>